<svg width="178" height="31" viewBox="0 0 178 31" fill="none" xmlns="http://www.w3.org/2000/svg">
<path d="M0 29.9047V0.403339H20.1381V6.19413H7.13046V12.2442H18.8561V18.0494H7.13046V29.9047H0Z" fill="#101225"/>
<path d="M35.8061 20.3542V7.77868H42.8357V29.9047H36.123V25.7849H35.8926C35.4028 27.1389 34.5673 28.2145 33.3861 29.0116C32.2145 29.7991 30.798 30.1928 29.1366 30.1928C27.6289 30.1928 26.3037 29.8471 25.1609 29.1556C24.0181 28.4642 23.1298 27.4991 22.4959 26.2602C21.8621 25.0118 21.5404 23.5521 21.5308 21.8811V7.77868H28.5748V20.4983C28.5844 21.6987 28.9013 22.6446 29.5256 23.336C30.1498 24.0275 30.9997 24.3732 32.0752 24.3732C32.7763 24.3732 33.4053 24.2195 33.9623 23.9122C34.5289 23.5953 34.9754 23.1392 35.302 22.5438C35.6381 21.9388 35.8061 21.2089 35.8061 20.3542Z" fill="#101225"/>
<path d="M53.552 0.403339V29.9047H46.508V0.403339H53.552Z" fill="#101225"/>
<path d="M64.2683 0.403339V29.9047H57.2243V0.403339H64.2683Z" fill="#101225"/>
<path d="M83.8869 9.24798C83.7908 8.19162 83.3635 7.37054 82.6048 6.78474C81.8558 6.18933 80.785 5.89163 79.3925 5.89163C78.4706 5.89163 77.7023 6.01167 77.0877 6.25175C76.4731 6.49184 76.0121 6.82315 75.7048 7.2457C75.3975 7.65864 75.2391 8.134 75.2295 8.67179C75.2103 9.11354 75.2967 9.50247 75.4888 9.83859C75.6904 10.1747 75.9785 10.4724 76.3531 10.7317C76.7372 10.9814 77.1982 11.2023 77.7359 11.3943C78.2737 11.5864 78.8787 11.7544 79.551 11.8985L82.0862 12.4747C83.5459 12.7916 84.8328 13.2142 85.9468 13.7423C87.0704 14.2705 88.0115 14.8995 88.7701 15.6294C89.5384 16.3592 90.1194 17.1995 90.5131 18.1502C90.9069 19.101 91.1085 20.1669 91.1181 21.3482C91.1085 23.2112 90.638 24.8101 89.7065 26.145C88.7749 27.4799 87.4353 28.5026 85.6875 29.2133C83.9493 29.9239 81.851 30.2792 79.3925 30.2792C76.9245 30.2792 74.7733 29.9095 72.9391 29.17C71.1049 28.4306 69.6788 27.307 68.6608 25.7993C67.6429 24.2916 67.1195 22.3853 67.0907 20.0805H73.9186C73.9762 21.0312 74.2307 21.8235 74.6821 22.4573C75.1334 23.0912 75.7529 23.5713 76.5403 23.8978C77.3374 24.2243 78.2593 24.3876 79.3061 24.3876C80.2664 24.3876 81.0827 24.258 81.7549 23.9987C82.4368 23.7394 82.9601 23.3793 83.3251 22.9183C83.69 22.4573 83.8773 21.9292 83.8869 21.3337C83.8773 20.7768 83.7044 20.3014 83.3683 19.9077C83.0322 19.5043 82.5136 19.1586 81.8125 18.8705C81.1211 18.5728 80.2376 18.2991 79.162 18.0494L76.0794 17.3292C73.5249 16.7434 71.513 15.7974 70.0437 14.4914C68.5744 13.1757 67.8445 11.3991 67.8541 9.16156C67.8445 7.33693 68.3343 5.73798 69.3234 4.3647C70.3126 2.99143 71.6811 1.92066 73.4289 1.1524C75.1767 0.384132 77.1693 0 79.4069 0C81.6925 0 83.6756 0.388934 85.3562 1.1668C87.0464 1.93507 88.3572 3.01544 89.2887 4.40792C90.2202 5.8004 90.6956 7.41375 90.7148 9.24798H83.8869Z" fill="#101225"/>
<path d="M106.397 7.77868V12.9645H92.4388V7.77868H106.397ZM95.363 2.47765H102.407V22.9471C102.407 23.3793 102.474 23.7298 102.609 23.9987C102.753 24.258 102.959 24.4452 103.228 24.5605C103.497 24.6661 103.819 24.7189 104.193 24.7189C104.462 24.7189 104.745 24.6949 105.043 24.6469C105.35 24.5893 105.581 24.5412 105.735 24.5028L106.801 29.5878C106.464 29.6838 105.989 29.8039 105.374 29.9479C104.769 30.092 104.044 30.1832 103.199 30.2216C101.548 30.2984 100.131 30.1064 98.9498 29.6454C97.7782 29.1748 96.8803 28.445 96.2561 27.4559C95.6415 26.4667 95.3438 25.2231 95.363 23.725V2.47765Z" fill="#101225"/>
<path d="M115.417 30.2792C114.006 30.2792 112.752 30.0439 111.658 29.5734C110.572 29.0932 109.713 28.373 109.079 27.4126C108.455 26.4427 108.143 25.2279 108.143 23.7682C108.143 22.539 108.359 21.5018 108.791 20.6567C109.223 19.8116 109.819 19.125 110.577 18.5968C111.336 18.0686 112.21 17.6701 113.199 17.4012C114.188 17.1227 115.244 16.9354 116.368 16.8394C117.626 16.7242 118.639 16.6041 119.407 16.4793C120.176 16.3448 120.733 16.1576 121.078 15.9175C121.434 15.6678 121.611 15.3173 121.611 14.8659V14.7939C121.611 14.0544 121.357 13.483 120.848 13.0797C120.339 12.6764 119.652 12.4747 118.788 12.4747C117.857 12.4747 117.107 12.6764 116.541 13.0797C115.974 13.483 115.614 14.04 115.461 14.7507L108.964 14.5202C109.156 13.1757 109.651 11.9753 110.448 10.919C111.254 9.85299 112.359 9.01751 113.761 8.4125C115.172 7.79789 116.867 7.49058 118.846 7.49058C120.257 7.49058 121.559 7.65864 122.749 7.99475C123.94 8.32127 124.977 8.80143 125.861 9.43525C126.744 10.0595 127.426 10.8277 127.906 11.74C128.396 12.6524 128.641 13.6943 128.641 14.8659V29.9047H122.015V26.822H121.842C121.448 27.5711 120.944 28.2049 120.329 28.7235C119.724 29.2421 119.009 29.631 118.183 29.8903C117.367 30.1496 116.445 30.2792 115.417 30.2792ZM117.592 25.6696C118.351 25.6696 119.033 25.516 119.638 25.2087C120.253 24.9014 120.742 24.4788 121.107 23.941C121.472 23.3937 121.655 22.7598 121.655 22.0396V19.9365C121.453 20.0421 121.208 20.1381 120.92 20.2246C120.642 20.311 120.334 20.3926 119.998 20.4694C119.662 20.5463 119.316 20.6135 118.961 20.6711C118.606 20.7287 118.265 20.7816 117.938 20.8296C117.276 20.9352 116.709 21.0985 116.238 21.3193C115.777 21.5402 115.422 21.8283 115.172 22.1836C114.932 22.5294 114.812 22.9423 114.812 23.4225C114.812 24.1523 115.072 24.7093 115.59 25.0934C116.118 25.4776 116.786 25.6696 117.592 25.6696Z" fill="#101225"/>
<path d="M142.465 30.3224C140.132 30.3224 138.129 29.8423 136.458 28.8819C134.797 27.9216 133.52 26.5868 132.627 24.8774C131.734 23.1584 131.287 21.1705 131.287 18.9137C131.287 16.6473 131.734 14.6595 132.627 12.9501C133.529 11.2311 134.811 9.89141 136.473 8.93108C138.144 7.97075 140.136 7.49058 142.451 7.49058C144.496 7.49058 146.278 7.86031 147.795 8.59976C149.322 9.33922 150.513 10.386 151.367 11.74C152.232 13.0845 152.688 14.6643 152.736 16.4793H146.153C146.018 15.3461 145.634 14.4578 145 13.8144C144.376 13.1709 143.56 12.8492 142.552 12.8492C141.735 12.8492 141.02 13.0797 140.405 13.5407C139.791 13.992 139.311 14.6643 138.965 15.5574C138.629 16.4409 138.461 17.5356 138.461 18.8417C138.461 20.1477 138.629 21.2521 138.965 22.1548C139.311 23.0479 139.791 23.725 140.405 24.1859C141.02 24.6373 141.735 24.863 142.552 24.863C143.205 24.863 143.781 24.7237 144.28 24.4452C144.789 24.1667 145.207 23.7586 145.533 23.2208C145.86 22.6734 146.066 22.0108 146.153 21.2329H152.736C152.669 23.0575 152.213 24.6517 151.367 26.0154C150.532 27.379 149.356 28.4402 147.838 29.1989C146.331 29.9479 144.54 30.3224 142.465 30.3224Z" fill="#101225"/>
<path d="M161.882 24.0995L161.911 15.7014H162.89L169.113 7.77868H177.094L167.846 19.1298H165.988L161.882 24.0995ZM155.529 29.9047V0.403339H162.574V29.9047H155.529ZM169.272 29.9047L163.481 20.7143L168.119 15.7158L177.411 29.9047H169.272Z" fill="#101225"/>
</svg>
